<svg xmlns="http://www.w3.org/2000/svg" viewBox="0 0 48 48" width="48" height="48">
  <rect width="48" height="48" rx="10" fill="#ffffff"/>
  <g transform="translate(4, 10) scale(0.42)">
    <path fill="#E8832A" d="M 10 55 C 10 55 15 50 25 48 C 25 48 22 42 25 38 C 28 34 35 30 42 28 C 49 26 58 25 65 27 C 72 29 78 33 80 38 C 80 38 85 35 90 38 C 90 38 88 30 82 24 C 76 18 65 14 52 14 C 39 14 28 18 20 26 C 12 34 10 42 10 55 Z"/>
    <path fill="#E8832A" d="M 10 55 C 10 55 12 58 18 58 C 18 58 15 52 22 48 L 25 48 C 20 50 15 55 18 58 L 30 58 C 30 58 28 52 30 48 C 30 48 26 48 25 48"/>
    <path fill="#E8832A" d="M 30 58 C 30 58 32 52 38 50 C 38 50 35 55 38 58 Z"/>
    <path fill="#E8832A" d="M 38 58 C 38 58 40 52 48 50 C 48 50 45 55 48 58 Z"/>
    <path fill="#E8832A" d="M 48 58 L 55 58 C 55 58 52 52 55 48 C 55 48 50 50 48 52 C 46 54 48 58 48 58 Z"/>
    <path fill="#E8832A" d="M 55 58 L 65 58 C 65 58 62 52 65 48 C 65 48 58 50 55 52 C 55 52 55 55 55 58 Z"/>
    <path fill="#E8832A" d="M 65 58 C 65 58 70 58 75 58 C 75 58 78 55 80 52 L 80 48 C 80 48 72 50 65 52 C 65 52 63 55 65 58 Z"/>
    <path fill="#E8832A" d="M 75 58 C 75 58 82 58 88 55 C 88 55 90 50 90 45 L 90 38 C 90 38 85 42 80 45 L 80 48 C 80 48 82 52 80 55 L 75 58 Z"/>
  </g>
</svg>