<?xml version="1.0" encoding="utf-8"?>
<!-- Generator: Adobe Illustrator 25.4.1, SVG Export Plug-In . SVG Version: 6.00 Build 0)  -->
<svg version="1.1" xmlns="http://www.w3.org/2000/svg" xmlns:xlink="http://www.w3.org/1999/xlink" x="0px" y="0px"
	 viewBox="0 0 512 512" style="enable-background:new 0 0 512 512;" xml:space="preserve">
<style type="text/css">
	.st0{fill:#F05A28;}
</style>
<g id="Layer_1">
	<rect width="512" height="512"/>
</g>
<g id="Layer_2">
	<g>
		<g>
			<path class="st0" d="M43.37,320.15c-5.48,1.62-11.09,0.28-16.62,0.66c-1.24,0.08-1.52-0.91-1.49-1.99
				c0.48-13.96-1.65-28.02,1.55-41.88c5.93-25.65,31.7-47.59,57.88-49.73c8.52-0.7,17.02-0.72,25.52-0.59
				c13.86,0.21,25.45-4.28,35.94-13.61c17.15-15.25,36.96-25.64,60.17-28.29c16.98-1.94,33.57,0.66,49.98,4.87
				c21.35,5.47,41.79,13.45,61.89,22.35c2.1,0.93,4.28,1.8,6.23,3.76c-2.95,1.13-5.8,0.63-8.53,0.67c-8.38,0.11-16.8-0.45-25.14,0.1
				c-11.83,0.79-22.3-3.95-33.19-7.04c-16.58-4.7-33.25-8.46-50.69-6.04c-16.98,2.36-31.41,10.22-44.76,20.47
				c-0.64,0.49-1.53,0.98-1.3,1.9c0.26,1.03,1.32,0.74,2.1,0.79c0.82,0.05,1.65,0.02,2.47,0.02c50.85-0.04,101.7-0.06,152.55-0.13
				c22.67-0.03,45.34-0.19,68.02-0.25c3.43-0.01,6.87,0.46,10.29,0.33c5.82-0.21,9.59,2.65,12.24,7.48c1.19,2.17,2.4,4.32,3.5,6.53
				c2.05,4.09,1.84,4.58-2.78,4.61c-13.47,0.1-26.94,0.1-40.4,0.04c-8.1-0.03-16.21-0.34-24.31-0.35
				c-82.73-0.06-165.47-0.1-248.2-0.08c-20.24,0-36.07,8.22-46.64,25.81c-3.03,5.04-4.14,10.69-5.02,16.4
				c-1.71,1.12-1.28,2.89-1.28,4.48C43.34,301,43.36,310.58,43.37,320.15z"/>
			<path class="st0" d="M92.01,308.43c0.65,0.18,1.29,0.35,1.94,0.53c1.06,2.32,3.15,1.75,5.01,1.75
				c45.74,0.01,91.47,0.07,137.21-0.07c6.17-0.02,12.6-0.95,18.51-0.81c6.02,0.14,12.38,0.2,18.54,0.88c1.21,0.13,2.47-0.06,3.7-0.1
				c0,0-0.04-0.07-0.04-0.06c1.29,2.43,2.49,4.95,5.8,5.06c0,0-0.03-0.04-0.03-0.04c-0.65,2,0.83,3.33,1.54,4.89
				c2.34,5.12,2.36,5.12-3.45,5.12c-25.8,0.01-51.6,0-77.4,0.02c-1.48,0-3.14-0.48-4.42,0.47c-2.75,2.06-5.99,1.51-8.7,0.91
				c-3.52-0.78-7.33,1.29-10.59-1.31c-0.39-0.32-1.75,0.03-2.26,0.51c-1.29,1.19-2.76,1.03-4.26,1.03c-23.74,0-47.48,0-71.23-0.02
				c-1.09,0-2.24,0.05-3.25-0.26c-5.37-1.68-10.77-3.14-16.47-3.02c-11.2-4.93-17.37-13.77-18.26-25.69
				c-1.05-14.07,5.94-25.64,17.49-30.86c17.7-8.01,37.87-1.14,45.08,15.35c3.45,7.88,3.19,8.31-5.12,8.28
				c-3.43-0.01-6.85-0.09-10.28-0.15c-0.59-1.68-1.6-2.89-3.47-3.16c0,0,0.05,0.05,0.05,0.05c0.02-1.07,0.46-2.51-0.64-3.01
				c-3.3-1.48-5.83-4.28-10.22-3.94c-3.81,0.29-7.04,1.67-10.5,2.7c-0.3-0.27-0.47-1-1.05-0.29c0.34,0.11,0.67,0.22,1.01,0.33
				c-0.5,0.95-0.44,1.83,0.29,2.64c0,0-0.04-0.01-0.04-0.01c-3.12,1.32-7.01,9.8-5.9,13.05c1.47,4.31,5.09,6.86,8.32,9.66
				C89.71,309.55,91.19,310.07,92.01,308.43z"/>
			<path class="st0" d="M399.22,327.82c-20.89,0-41.78,0.04-62.66-0.02c-7.01-0.02-14.02-0.3-20.58-3.26
				c-14.76-6.66-21.87-20.63-18.53-36.36c2.89-13.58,16.68-24.15,31.54-24.16c15.46-0.02,27.71,8.98,32.14,23.42
				c0.8,2.6,0.79,3.89-2.44,3.6c-2.18-0.2-4.4-0.15-6.59-0.01c-5.46,0.35-10.09-0.08-14.03-5.19c-3.52-4.57-9.27-4.16-14.42-1.95
				c-5.17,2.23-8.45,7.18-8.05,12.31c0.44,5.54,3.42,9.44,8.57,11.59c3.37,1.41,6.96,1.54,10.54,1.49
				c37.79-0.47,75.58,0.37,113.36-0.48c14.39-0.32,16.07,3.21,22.47,16.3c0.81,1.65,0.31,2.64-1.65,2.66
				c-1.24,0.01-2.47,0.05-3.71,0.05C443.19,327.82,421.2,327.82,399.22,327.82z M439.98,310.49c0-0.1,0-0.21,0-0.31
				c-36.71,0-73.42,0-110.12,0c0,0.1,0,0.21,0,0.31C366.57,310.49,403.28,310.49,439.98,310.49z"/>
			<path class="st0" d="M208.33,290.98c-19.1,0-38.21-0.06-57.31,0.07c-2.79,0.02-3.88-1-4.4-3.53c-0.72-3.48-1.52-6.97-2.62-10.35
				c-1.11-3.42-0.37-4.66,3.43-4.57c9.62,0.21,19.24,0.07,28.86,0.07c24.46,0,48.93,0,73.39,0c10.07,0,17.56,6.07,19.64,15.84
				c0.58,2.71-1.13,2.49-2.86,2.48c-14.57-0.01-29.14,0-43.7,0C217.95,290.98,213.14,290.98,208.33,290.98z M255.8,275.43
				c-0.88-1.37-1.93-0.99-2.81-0.99c-34.06-0.02-68.12-0.02-102.18-0.01c-1.21,0-2.56-0.3-3.45,0.84c-0.53,0.68-2.34,1.37-0.5,2.33
				c0.94,0.49,2.3,2.82,3.25,0.62c1.17-2.72,3.16-2.14,5.11-2.14c31.86-0.02,63.73-0.01,95.59-0.04
				C252.39,276.05,254.07,276.51,255.8,275.43z"/>
			<path class="st0" d="M480.26,277.72c0.25,0.14,0.37,0.36,0.34,0.65c-0.06,0.34-0.12,0.68-0.18,1.02
				c-1.98,0.31-5.64-1.43-4.03,3.29c-0.85,0.94-0.44,1.58,0.62,1.55c1.73-0.04,3.08,0.65,4.53,1.5c1.04,0.61,2.56,0.62,2.1,2.36
				c-0.44,1.68-1.98,1.02-3.1,1.21c-30.8,0-61.61-0.01-92.41-0.01c-6.57,0-6.57,0-6.57-4.96c2.31-1,3.91,2.76,6.02,1.16
				c1.91-1.45,3.87-1.14,5.86-1.14c23.15-0.03,46.3,0,69.45-0.07c1.54,0,3.75,1.08,4.43-1.6l0.02-0.01c0.93-0.01,1.86,0,2.79-0.02
				c0.98-0.02,1.88-0.17,2.03-1.4c0.14-1.16-0.44-1.73-1.54-1.87c1.36-2.13,1.64-3.67-1.76-3.37c-0.99,0.09-1.41-0.67-1.54-1.57
				c2.29,0.36,4.96-1.01,6.84,1.17C475.85,277.55,477.9,277.96,480.26,277.72z"/>
			<path class="st0" d="M82.16,323.9c5.7-0.11,11.09,1.35,16.47,3.02c1.01,0.32,2.16,0.26,3.25,0.26
				c23.74,0.02,47.48,0.02,71.23,0.02c1.49,0,2.97,0.15,4.26-1.03c0.51-0.47,1.86-0.82,2.26-0.51c3.27,2.61,7.08,0.54,10.59,1.31
				c2.71,0.6,5.95,1.15,8.7-0.91c1.28-0.96,2.93-0.47,4.42-0.47c25.8-0.02,51.6-0.01,77.4-0.02c5.8,0,5.78-0.01,3.45-5.12
				c-0.71-1.56-2.19-2.9-1.54-4.89c2.56,2.76,3.85,6.24,5.45,9.55c0.99,2.04,0.12,2.76-1.92,2.71c-1.92-0.05-3.84,0-5.77,0
				c-58.77,0.05-117.54,0.14-176.31,0.12C96.58,327.94,88.95,328.08,82.16,323.9z"/>
			<path class="st0" d="M276.91,310.61c-1.23,0.04-2.49,0.24-3.7,0.1c-6.16-0.68-12.52-0.74-18.54-0.88
				c-5.91-0.13-12.34,0.8-18.51,0.81c-45.74,0.14-91.47,0.08-137.21,0.07c-1.85,0-3.95,0.57-5.01-1.75
				c54.39,0.4,108.78,0.49,163.16-0.13c5.21-0.06,10.43,0.27,15.64,0.48C274.22,309.37,275.81,309.26,276.91,310.61z"/>
			<path class="st0" d="M381.57,284.32c0,4.96,0,4.96,6.57,4.96c0.01,0.52,0.02,1.04,0.03,1.56c-1.37,0.05-2.75,0.03-4.11,0.18
				c-2.14,0.23-3.28-0.57-3.74-2.76c-0.9-4.29-1.9-8.58-3.06-12.8c-0.56-2.03-0.1-2.83,1.99-2.8c2.2,0.04,4.4-0.02,6.59-0.02
				c28.03,0.08,56.06,0.19,84.09,0.22c4.29,0,7.72,1.47,10.34,4.86c-2.36,0.24-4.42-0.16-6.1-2.12c-1.88-2.18-4.54-0.81-6.84-1.17
				c-28.98,0-57.95,0-86.93,0c1.71,1.84,3.48,2.68,5.07,4.23c-1.26,0.99-2.54,0.59-3.69,0.72c-0.88,0.1-1.62,0.31-1.77,1.34
				c-0.17,1.19,0.38,1.81,1.53,1.97C381.55,283.24,381.56,283.78,381.57,284.32z"/>
			<path class="st0" d="M388.17,290.84c-0.01-0.52-0.02-1.04-0.03-1.56c30.8,0,61.61,0.01,92.41,0.01
				c-0.01,0.51-0.02,1.03-0.03,1.54C449.73,290.83,418.95,290.84,388.17,290.84z"/>
			<path class="st0" d="M92.01,308.43c-0.82,1.64-2.3,1.13-3.1,0.44c-3.23-2.8-6.85-5.35-8.32-9.66c-1.11-3.25,2.79-11.73,5.9-13.05
				c-0.19,1.08-0.99,1.71-1.75,2.38c-0.46,0.08-0.68,0.27-0.36,0.73C81.25,299.09,83.12,303.78,92.01,308.43z"/>
			<path class="st0" d="M480.51,290.83c0.01-0.51,0.02-1.03,0.03-1.54c1.13-0.18,2.66,0.47,3.1-1.21c0.46-1.74-1.06-1.75-2.1-2.36
				c-1.44-0.84-2.79-1.53-4.53-1.5c-1.06,0.02-1.47-0.61-0.62-1.55c2.31,0.09,4.73,0.32,4.03-3.29c0.06-0.34,0.12-0.68,0.18-1.02
				c2.65,2.51,4.1,5.76,5.69,8.95c1.46,2.91,0.67,4.02-2.5,3.67C482.71,290.87,481.61,290.88,480.51,290.83z"/>
			<path class="st0" d="M86.54,286.16c-0.73-0.81-0.79-1.7-0.29-2.64l0.04-0.04c3.46-1.02,6.7-2.4,10.5-2.7
				c4.4-0.34,6.92,2.47,10.22,3.94c1.1,0.49,0.66,1.94,0.64,3.01c-3-2.57-6.03-4.98-10.25-5.3
				C93.18,282.1,89.72,283.66,86.54,286.16z"/>
			<path class="st0" d="M43.37,320.15c-0.01-9.57-0.03-19.15-0.02-28.72c0-1.59-0.43-3.36,1.28-4.48
				c-0.19,9.18-0.37,18.37-0.57,27.55C44.02,316.4,44.2,318.34,43.37,320.15z"/>
			<path class="st0" d="M282.68,315.6c-3.31-0.11-4.51-2.63-5.8-5.06C279.92,310.95,281.56,312.97,282.68,315.6z"/>
			<path class="st0" d="M107.6,287.68c1.87,0.27,2.88,1.48,3.47,3.16C108.77,291.05,108.22,289.33,107.6,287.68z"/>
			<path class="st0" d="M84.39,289.26c-0.33-0.46-0.1-0.66,0.36-0.73C84.63,288.77,84.51,289.02,84.39,289.26z"/>
			<path class="st0" d="M86.25,283.52c-0.34-0.11-0.67-0.22-1.01-0.33c0.57-0.71,0.75,0.02,1.05,0.29
				C86.28,283.48,86.25,283.52,86.25,283.52z"/>
			<ellipse class="st0" cx="384.92" cy="310.34" rx="77.87" ry="0.22"/>
			<path class="st0" d="M255.8,275.43c-1.73,1.08-3.41,0.62-5,0.62c-31.86,0.03-63.73,0.02-95.59,0.04c-1.94,0-3.93-0.58-5.11,2.14
				c-0.95,2.2-2.31-0.13-3.25-0.62c-1.84-0.96-0.03-1.65,0.5-2.33c0.89-1.15,2.24-0.84,3.45-0.84c34.06-0.01,68.12-0.01,102.18,0.01
				C253.87,274.44,254.92,274.07,255.8,275.43z"/>
			<path class="st0" d="M381.55,282.7c-1.15-0.16-1.71-0.78-1.53-1.97c0.15-1.04,0.89-1.24,1.77-1.34c1.15-0.13,2.43,0.27,3.69-0.72
				c-1.59-1.56-3.36-2.4-5.07-4.23c28.98,0,57.95,0,86.93,0c0.13,0.91,0.56,1.66,1.54,1.57c3.4-0.3,3.11,1.23,1.76,3.37
				c-1.1,0-2.2,0-3.3,0c-0.3-2.03-1.89-1.64-3.19-1.64c-24.3-0.01-48.6-0.02-72.9,0.02c-0.88,0-2.3-0.65-2.55,1.61
				c26.28,0,52.46,0,78.65,0c0,1.1,0.01,2.2,0.01,3.3c0,0-0.02,0.01-0.02,0.01C438.73,282.68,410.14,282.69,381.55,282.7z"/>
			<path class="st0" d="M381.55,282.7c28.59-0.01,57.19-0.02,85.78-0.02c-0.69,2.68-2.89,1.6-4.43,1.6
				c-23.15,0.07-46.3,0.04-69.45,0.07c-1.99,0-3.94-0.31-5.86,1.14c-2.11,1.6-3.71-2.15-6.02-1.16
				C381.56,283.78,381.55,283.24,381.55,282.7z"/>
			<path class="st0" d="M467.35,282.66c0-1.1-0.01-2.2-0.01-3.3l-0.01,0.01c1.1,0,2.2,0,3.3,0c1.1,0.14,1.68,0.71,1.54,1.87
				c-0.15,1.23-1.05,1.38-2.03,1.4C469.2,282.66,468.28,282.66,467.35,282.66z"/>
			<path class="st0" d="M480.43,279.38c0.71,3.61-1.72,3.37-4.03,3.29C474.79,277.95,478.45,279.7,480.43,279.38z"/>
			<path class="st0" d="M467.33,279.37c-26.18,0-52.37,0-78.65,0c0.25-2.26,1.67-1.61,2.55-1.61c24.3-0.04,48.6-0.04,72.9-0.02
				C465.44,277.73,467.02,277.35,467.33,279.37C467.32,279.38,467.33,279.37,467.33,279.37z"/>
		</g>
	</g>
</g>
</svg>
